<svg xmlns="http://www.w3.org/2000/svg" viewBox="0 0 800 400" width="800" height="400">
  <defs>
    <linearGradient id="bg" x1="0%" y1="0%" x2="100%" y2="100%">
      <stop offset="0%" stop-color="#0f172a"/>
      <stop offset="100%" stop-color="#1c1917"/>
    </linearGradient>
    <linearGradient id="cn" x1="0%" y1="0%" x2="100%" y2="100%">
      <stop offset="0%" stop-color="#ef4444"/>
      <stop offset="100%" stop-color="#f97316"/>
    </linearGradient>
    <linearGradient id="ov" x1="0%" y1="0%" x2="100%" y2="100%">
      <stop offset="0%" stop-color="#06b6d4"/>
      <stop offset="100%" stop-color="#6366f1"/>
    </linearGradient>
    <linearGradient id="acc" x1="0%" y1="0%" x2="100%" y2="100%">
      <stop offset="0%" stop-color="#22c55e"/>
      <stop offset="100%" stop-color="#06b6d4"/>
    </linearGradient>
  </defs>
  <rect width="800" height="400" fill="url(#bg)"/>
  <text x="400" y="50" font-family="system-ui, -apple-system, sans-serif" font-size="13" font-weight="600" fill="#94a3b8" text-anchor="middle" letter-spacing="4">HYBRID ARCHITECTURE</text>
  <text x="400" y="80" font-family="system-ui, -apple-system, sans-serif" font-size="22" font-weight="700" fill="#e2e8f0" text-anchor="middle">国内服务器 + 海外免费服务</text>
  <rect x="60" y="120" width="180" height="80" rx="8" fill="url(#cn)"/>
  <text x="150" y="152" font-family="system-ui, -apple-system, sans-serif" font-size="14" font-weight="700" fill="white" text-anchor="middle">国内用户</text>
  <text x="150" y="172" font-family="system-ui, -apple-system, sans-serif" font-size="11" fill="rgba(255,255,255,0.8)" text-anchor="middle">浏览器访问</text>
  <text x="150" y="188" font-family="system-ui, -apple-system, sans-serif" font-size="10" fill="rgba(255,255,255,0.6)" text-anchor="middle">延迟 &lt; 30ms</text>
  <line x1="240" y1="160" x2="310" y2="160" stroke="#475569" stroke-width="2"/>
  <polygon points="305,155 318,160 305,165" fill="#475569"/>
  <rect x="320" y="120" width="180" height="80" rx="8" fill="#1e293b" stroke="#f97316" stroke-width="2"/>
  <text x="410" y="150" font-family="system-ui, -apple-system, sans-serif" font-size="13" font-weight="700" fill="#f97316" text-anchor="middle">国内服务器</text>
  <text x="410" y="170" font-family="system-ui, -apple-system, sans-serif" font-size="10" fill="#94a3b8" text-anchor="middle">nginx 反代 · API 聚合</text>
  <text x="410" y="186" font-family="system-ui, -apple-system, sans-serif" font-size="10" fill="#94a3b8" text-anchor="middle">缓存 · 鉴权 · 转发</text>
  <line x1="500" y1="140" x2="580" y2="140" stroke="#475569" stroke-width="2" stroke-dasharray="6,4"/>
  <polygon points="575,135 588,140 575,145" fill="#475569"/>
  <rect x="590" y="105" width="160" height="50" rx="6" fill="#1e293b" stroke="url(#ov)" stroke-width="1.5"/>
  <text x="670" y="128" font-family="system-ui, -apple-system, sans-serif" font-size="12" font-weight="600" fill="#06b6d4" text-anchor="middle">Vercel / Pages</text>
  <text x="670" y="145" font-family="system-ui, -apple-system, sans-serif" font-size="10" fill="#64748b" text-anchor="middle">前端托管</text>
  <line x1="500" y1="170" x2="580" y2="170" stroke="#475569" stroke-width="2" stroke-dasharray="6,4"/>
  <polygon points="575,165 588,170 575,175" fill="#475569"/>
  <rect x="590" y="153" width="160" height="50" rx="6" fill="#1e293b" stroke="url(#ov)" stroke-width="1.5"/>
  <text x="670" y="176" font-family="system-ui, -apple-system, sans-serif" font-size="12" font-weight="600" fill="#06b6d4" text-anchor="middle">Supabase</text>
  <text x="670" y="193" font-family="system-ui, -apple-system, sans-serif" font-size="10" fill="#64748b" text-anchor="middle">数据库 / Auth</text>
  <line x1="500" y1="200" x2="580" y2="200" stroke="#475569" stroke-width="2" stroke-dasharray="6,4"/>
  <polygon points="575,195 588,200 575,205" fill="#475569"/>
  <rect x="590" y="201" width="160" height="50" rx="6" fill="#1e293b" stroke="url(#ov)" stroke-width="1.5"/>
  <text x="670" y="224" font-family="system-ui, -apple-system, sans-serif" font-size="12" font-weight="600" fill="#06b6d4" text-anchor="middle">R2 / Resend / Workers</text>
  <text x="670" y="241" font-family="system-ui, -apple-system, sans-serif" font-size="10" fill="#64748b" text-anchor="middle">存储 · 邮件 · 边缘逻辑</text>
  <rect x="120" y="250" width="560" height="50" rx="8" fill="#1e293b" stroke="url(#acc)" stroke-width="1" stroke-dasharray="4,3"/>
  <text x="400" y="272" font-family="system-ui, -apple-system, sans-serif" font-size="12" fill="#22c55e" text-anchor="middle">服务端直连海外 API — 无需代理，延迟 100-200ms</text>
  <text x="400" y="290" font-family="system-ui, -apple-system, sans-serif" font-size="12" fill="#22c55e" text-anchor="middle">数据库托管 — 零运维 · 自动备份 · PITR</text>
  <text x="400" y="340" font-family="system-ui, -apple-system, sans-serif" font-size="11" fill="#64748b" text-anchor="middle">成本：0 元/月 · 风险：低 · 维护：几乎为零</text>
</svg>
